<svg xmlns="http://www.w3.org/2000/svg" viewBox="0 0 1000 1000">
  <path fill="#2E77BC" d="M1000,806.3c0,53.5-43.3,96.8-96.8,96.8H96.8c-53.5,0-96.8-43.3-96.8-96.8V193.7C0,140.2,43.3,96.9,96.8,96.9
    h806.3c53.5,0,96.8,43.3,96.8,96.8V806.3z"/>
  <path fill="#FFFFFF" d="M445.8,605.8l-42.6-48.6l-42.6,48.6h-132l91.2-99.8l-91.2-99.8h134.8l40.4,47.9l41.1-47.9h132l-91.2,99.8
    l91.2,99.8H445.8z M814,406.1v199.7H701.7v-37.2l-12.3,37.2H561.3l-12.3-38.6v38.6H422.9v-85.4c0-11.6-2.7-16.4-15.7-16.4h-6.2
    v101.8h-112V454h-30.1l-71.8,151.8h-76L39.3,454H0v151.8h656.3l77.3-166.8v166.8h149.1V454h-99.8L814,406.1z"/>
</svg>