<svg xmlns="http://www.w3.org/2000/svg" viewBox="0 0 1000 776">
  <path fill="#FF5F00" d="M380.2,775.6h239.6V0H380.2V775.6z"/>
  <path fill="#EB001B" d="M395.7,387.8c0-157.4,73.5-297.4,188-387.8C520.4,71.9,435.8,169,435.8,387.8s84.6,315.9,147.9,387.8
    C469.3,685.2,395.7,545.2,395.7,387.8z"/>
  <path fill="#F79E1B" d="M1000,387.8c0,218.8-177.4,396.2-396.2,396.2c-84.6,0-162.8-26.4-227.1-71.5c114.5-90.4,188-230.4,188-387.8
    S491.2,27.3,376.7-63.1C441,17.9,519.2,44.3,603.8,44.3C822.6,44.3,1000,169,1000,387.8z"/>
</svg>