<svg xmlns="http://www.w3.org/2000/svg" viewBox="0 0 1000 324">
  <path fill="#1434CB" d="M651.19,0.03h-99.66c-30.85,0-54.06,8.98-67.71,41.69L363.58,319.93h93.87c0,0,14.44-40.17,17.72-48.97
    c9.67,0,95.67,0.14,107.98,0.14c2.51,11.45,10.29,48.83,10.29,48.83h82.93L651.19,0.03z M499.08,216.31
    c6.97-18.78,33.52-90.35,33.52-90.35c-0.49,0.86,6.91-18.84,11.15-31.06l5.69,28.06c0,0,16.06,77.63,19.42,93.36
    C545.49,216.31,516.87,216.31,499.08,216.31z M957.11,319.93l-59.32-319.9h-75.05c-17.23,0-31.86,10.29-38.34,26.09L617.22,319.93
    h93.87l23.41-64.79h143.37l13.57,64.79H957.11z M761.33,198.75l59.18-163.07l33.95,163.07H761.33z M303.76,0.03L213.34,219.07
    l-9.84-49.32c-17.15-58.35-70.67-121.45-130.52-152.96l84.49,302.69l99.8-0.14L402.49,0.03H303.76z M175.68,0.03H6.56L6,4.47
    c130.38,33.24,216.73,113.62,252.42,210.28L232.24,41.72C226.19,15.91,203.21,0.74,175.68,0.03z"/>
</svg>